<?xml version="1.0" standalone="no"?>
<!DOCTYPE svg PUBLIC "-//W3C//DTD SVG 20010904//EN"
 "http://www.w3.org/TR/2001/REC-SVG-20010904/DTD/svg10.dtd">
<svg version="1.0" xmlns="http://www.w3.org/2000/svg"
 width="256.000000pt" height="256.000000pt" viewBox="0 0 256.000000 256.000000"
 preserveAspectRatio="xMidYMid meet">
<metadata>
Created by potrace 1.14, written by Peter Selinger 2001-2017
</metadata>
<g transform="translate(0.000000,256.000000) scale(0.100000,-0.100000)"
fill="#000000" stroke="none">
<path d="M1169 2556 c-2 -2 -31 -7 -64 -11 -252 -28 -527 -164 -724 -358 -178
-175 -308 -416 -358 -665 -20 -103 -24 -326 -7 -432 77 -481 408 -873 864
-1024 41 -14 90 -28 109 -31 19 -3 37 -7 40 -9 16 -10 129 -20 241 -20 132 -1
216 7 284 25 22 6 50 13 60 15 82 16 254 92 358 159 123 80 248 196 322 298
17 23 33 44 36 47 30 28 117 196 154 297 52 147 71 259 71 433 -1 192 -23 314
-90 479 -121 296 -358 548 -631 671 -38 17 -78 35 -89 41 -39 18 -151 50 -225
65 -66 13 -342 29 -351 20z"/>
</g>
</svg>
